<svg width="156" height="32" viewBox="0 0 156 32" fill="none" xmlns="http://www.w3.org/2000/svg">
<path d="M48.5023 23H45.4062L40.7443 16.484V23H38.0263V10.148H40.7443V16.376L45.3523 10.148H48.2503L43.5703 16.322L48.5023 23ZM52.496 17.06C52.496 17.264 52.484 17.516 52.46 17.816C52.448 18.116 52.43 18.422 52.406 18.734C52.394 19.046 52.376 19.322 52.352 19.562C52.328 19.802 52.31 19.97 52.298 20.066L56.834 13.172H60.056V23H57.464V19.076C57.464 18.752 57.476 18.398 57.5 18.014C57.524 17.618 57.548 17.252 57.572 16.916C57.608 16.568 57.632 16.304 57.644 16.124L53.126 23H49.904V13.172H52.496V17.06ZM62.2651 17.114C62.2651 15.662 62.4451 14.432 62.8051 13.424C63.1651 12.404 63.7351 11.594 64.5151 10.994C65.2951 10.382 66.3151 9.968 67.5751 9.752C68.2111 9.644 68.8531 9.554 69.5011 9.482C70.1611 9.398 70.8391 9.314 71.5351 9.23L71.8411 11.57C71.5411 11.606 71.2111 11.648 70.8511 11.696C70.4911 11.732 70.1251 11.774 69.7531 11.822C69.3931 11.858 69.0451 11.9 68.7091 11.948C68.3731 11.996 68.0671 12.038 67.7911 12.074C67.3471 12.146 66.9571 12.248 66.6211 12.38C66.2851 12.5 66.0031 12.674 65.7751 12.902C65.5471 13.13 65.3671 13.442 65.2351 13.838C65.1151 14.222 65.0371 14.72 65.0011 15.332H65.1271C65.2711 15.104 65.4691 14.876 65.7211 14.648C65.9851 14.42 66.3091 14.228 66.6931 14.072C67.0771 13.916 67.5151 13.838 68.0071 13.838C68.7871 13.838 69.4651 14 70.0411 14.324C70.6171 14.648 71.0611 15.128 71.3731 15.764C71.6851 16.4 71.8411 17.192 71.8411 18.14C71.8411 19.256 71.6371 20.186 71.2291 20.93C70.8211 21.674 70.2571 22.238 69.5371 22.622C68.8171 22.994 67.9831 23.18 67.0351 23.18C66.3151 23.18 65.6611 23.048 65.0731 22.784C64.4851 22.52 63.9811 22.13 63.5611 21.614C63.1411 21.098 62.8171 20.462 62.5891 19.706C62.3731 18.95 62.2651 18.086 62.2651 17.114ZM67.1971 21.002C67.5811 21.002 67.9111 20.918 68.1871 20.75C68.4751 20.582 68.6971 20.306 68.8531 19.922C69.0211 19.538 69.1051 19.022 69.1051 18.374C69.1051 17.594 68.9731 16.976 68.7091 16.52C68.4571 16.052 68.0131 15.818 67.3771 15.818C66.9931 15.818 66.6331 15.914 66.2971 16.106C65.9731 16.286 65.6971 16.496 65.4691 16.736C65.2411 16.964 65.0851 17.162 65.0011 17.33C65.0011 17.798 65.0371 18.254 65.1091 18.698C65.1811 19.13 65.3011 19.52 65.4691 19.868C65.6371 20.216 65.8591 20.492 66.1351 20.696C66.4231 20.9 66.7771 21.002 67.1971 21.002ZM78.1063 12.992C79.0183 12.992 79.7983 13.166 80.4463 13.514C81.1063 13.862 81.6163 14.366 81.9763 15.026C82.3363 15.686 82.5163 16.496 82.5163 17.456V18.752H76.1803C76.2043 19.508 76.4263 20.102 76.8463 20.534C77.2783 20.966 77.8723 21.182 78.6283 21.182C79.2643 21.182 79.8403 21.122 80.3563 21.002C80.8723 20.87 81.4063 20.672 81.9583 20.408V22.478C81.4783 22.718 80.9683 22.892 80.4283 23C79.9003 23.12 79.2583 23.18 78.5023 23.18C77.5183 23.18 76.6483 23 75.8923 22.64C75.1363 22.268 74.5423 21.71 74.1103 20.966C73.6783 20.222 73.4623 19.286 73.4623 18.158C73.4623 17.006 73.6543 16.052 74.0383 15.296C74.4343 14.528 74.9803 13.952 75.6763 13.568C76.3723 13.184 77.1823 12.992 78.1063 12.992ZM78.1243 14.9C77.6083 14.9 77.1763 15.068 76.8283 15.404C76.4923 15.74 76.2943 16.262 76.2343 16.97H79.9963C79.9963 16.574 79.9243 16.22 79.7803 15.908C79.6483 15.596 79.4443 15.35 79.1683 15.17C78.8923 14.99 78.5443 14.9 78.1243 14.9ZM90.1631 12.992C91.2671 12.992 92.1611 13.424 92.8451 14.288C93.5291 15.14 93.8711 16.4 93.8711 18.068C93.8711 19.184 93.7091 20.126 93.3851 20.894C93.0611 21.65 92.6171 22.22 92.0531 22.604C91.4891 22.988 90.8351 23.18 90.0911 23.18C89.6231 23.18 89.2151 23.12 88.8671 23C88.5311 22.88 88.2431 22.724 88.0031 22.532C87.7631 22.34 87.5531 22.136 87.3731 21.92H87.2291C87.2771 22.148 87.3131 22.388 87.3371 22.64C87.3611 22.88 87.3731 23.12 87.3731 23.36V27.32H84.6911V13.172H86.8691L87.2471 14.45H87.3731C87.5531 14.186 87.7691 13.946 88.0211 13.73C88.2731 13.502 88.5731 13.322 88.9211 13.19C89.2811 13.058 89.6951 12.992 90.1631 12.992ZM89.2991 15.134C88.8311 15.134 88.4591 15.23 88.1831 15.422C87.9071 15.614 87.7031 15.908 87.5711 16.304C87.4511 16.688 87.3851 17.174 87.3731 17.762V18.05C87.3731 18.686 87.4331 19.226 87.5531 19.67C87.6731 20.102 87.8771 20.432 88.1651 20.66C88.4531 20.888 88.8431 21.002 89.3351 21.002C89.7431 21.002 90.0791 20.888 90.3431 20.66C90.6071 20.432 90.8051 20.096 90.9371 19.652C91.0691 19.208 91.1351 18.668 91.1351 18.032C91.1351 17.072 90.9851 16.352 90.6851 15.872C90.3971 15.38 89.9351 15.134 89.2991 15.134ZM102.868 13.172V15.188H98.7637V23H96.0817V13.172H102.868ZM108.552 12.992C109.464 12.992 110.244 13.166 110.892 13.514C111.552 13.862 112.062 14.366 112.422 15.026C112.782 15.686 112.962 16.496 112.962 17.456V18.752H106.626C106.65 19.508 106.872 20.102 107.292 20.534C107.724 20.966 108.318 21.182 109.074 21.182C109.71 21.182 110.286 21.122 110.802 21.002C111.318 20.87 111.852 20.672 112.404 20.408V22.478C111.924 22.718 111.414 22.892 110.874 23C110.346 23.12 109.704 23.18 108.948 23.18C107.964 23.18 107.094 23 106.338 22.64C105.582 22.268 104.988 21.71 104.556 20.966C104.124 20.222 103.908 19.286 103.908 18.158C103.908 17.006 104.1 16.052 104.484 15.296C104.88 14.528 105.426 13.952 106.122 13.568C106.818 13.184 107.628 12.992 108.552 12.992ZM108.57 14.9C108.054 14.9 107.622 15.068 107.274 15.404C106.938 15.74 106.74 16.262 106.68 16.97H110.442C110.442 16.574 110.37 16.22 110.226 15.908C110.094 15.596 109.89 15.35 109.614 15.17C109.338 14.99 108.99 14.9 108.57 14.9ZM117.818 13.172V16.952H121.562V13.172H124.244V23H121.562V18.95H117.818V23H115.136V13.172H117.818Z" fill="white"/>
<path d="M127.27 10.148H129.718V16.358C129.718 16.658 129.712 16.994 129.7 17.366C129.688 17.738 129.676 18.104 129.664 18.464C129.652 18.812 129.64 19.118 129.628 19.382C129.616 19.634 129.604 19.808 129.592 19.904H129.646L135.586 10.148H138.844V23H136.414V16.826C136.414 16.502 136.42 16.148 136.432 15.764C136.444 15.368 136.456 14.99 136.468 14.63C136.492 14.27 136.51 13.958 136.522 13.694C136.546 13.418 136.564 13.238 136.576 13.154H136.504L130.546 23H127.27V10.148ZM142.089 10.148H144.537V16.358C144.537 16.658 144.531 16.994 144.519 17.366C144.507 17.738 144.495 18.104 144.483 18.464C144.471 18.812 144.459 19.118 144.447 19.382C144.435 19.634 144.423 19.808 144.411 19.904H144.465L150.405 10.148H153.663V23H151.233V16.826C151.233 16.502 151.239 16.148 151.251 15.764C151.263 15.368 151.275 14.99 151.287 14.63C151.311 14.27 151.329 13.958 151.341 13.694C151.365 13.418 151.383 13.238 151.395 13.154H151.323L145.365 23H142.089V10.148Z" fill="#00D9F5"/>
<path d="M16.4063 0C13.2417 -3.77363e-08 10.1483 0.938383 7.51713 2.69649C4.88594 4.45459 2.83518 6.95345 1.62418 9.87706C0.413176 12.8007 0.096322 16.0177 0.713685 19.1214C1.33105 22.2251 2.8549 25.0761 5.09254 27.3137C7.33018 29.5513 10.1811 31.0752 13.2848 31.6926C16.3885 32.3099 19.6056 31.9931 22.5292 30.7821C25.4528 29.5711 27.9517 27.5203 29.7098 24.8891C31.4679 22.2579 32.4062 19.1645 32.4062 16L24.4062 16C24.4062 17.5823 23.9371 19.129 23.058 20.4446C22.179 21.7602 20.9295 22.7855 19.4677 23.391C18.0059 23.9965 16.3974 24.155 14.8455 23.8463C13.2937 23.5376 11.8682 22.7757 10.7494 21.6569C9.63057 20.538 8.86865 19.1126 8.55997 17.5607C8.25129 16.0089 8.40971 14.4003 9.01521 12.9385C9.62072 11.4767 10.6461 10.2273 11.9617 9.34824C13.2773 8.46919 14.824 8 16.4063 8L16.4063 0Z" fill="white"/>
<path d="M16.4063 0C14.3051 -2.5056e-08 12.2245 0.413852 10.2833 1.21793C8.34211 2.022 6.57828 3.20055 5.09254 4.68629C3.6068 6.17203 2.42825 7.93586 1.62418 9.87707C0.820102 11.8183 0.40625 13.8989 0.40625 16L8.40625 16C8.40625 14.9494 8.61318 13.9091 9.01521 12.9385C9.41725 11.9679 10.0065 11.086 10.7494 10.3431C11.4923 9.60028 12.3742 9.011 13.3448 8.60896C14.3154 8.20693 15.3557 8 16.4063 8L16.4063 0Z" fill="#5CE1E6"/>
<circle cx="16.4062" cy="16" r="5" fill="#5CE1E6"/>
<path d="M21.4062 16C21.4062 15.3434 21.2769 14.6932 21.0256 14.0866C20.7744 13.48 20.4061 12.9288 19.9418 12.4645C19.4775 12.0002 18.9263 11.6319 18.3197 11.3806C17.713 11.1293 17.0629 11 16.4062 11C15.7496 11 15.0995 11.1293 14.4928 11.3806C13.8862 11.6319 13.335 12.0002 12.8707 12.4645C12.4064 12.9288 12.0381 13.48 11.7869 14.0866C11.5356 14.6932 11.4062 15.3434 11.4063 16L16.4062 16H21.4062Z" fill="white"/>
</svg>
